<svg width="40" height="40" viewBox="0 0 40 40" fill="none" xmlns="http://www.w3.org/2000/svg">
<path d="M13.3333 26.6666H25.4387C32.918 26.6666 34.0555 21.968 35.435 15.1151C35.833 13.1385 36.032 12.1502 35.5535 11.4918C35.075 10.8333 34.1578 10.8333 32.3235 10.8333H10" stroke="black" stroke-width="2.5" stroke-linecap="round"/>
<path d="M13.3334 26.6666L8.96463 5.8582C8.59366 4.3743 7.26038 3.33331 5.73083 3.33331H4.16675" stroke="black" stroke-width="2.5" stroke-linecap="round"/>
<path d="M14.8 26.6667H14.1143C11.842 26.6667 10 28.5855 10 30.9524C10 31.3469 10.307 31.6667 10.6857 31.6667H29.1667" stroke="black" stroke-width="2.5" stroke-linecap="round" stroke-linejoin="round"/>
<path d="M17.5 36.6667C18.8807 36.6667 20 35.5474 20 34.1667C20 32.786 18.8807 31.6667 17.5 31.6667C16.1193 31.6667 15 32.786 15 34.1667C15 35.5474 16.1193 36.6667 17.5 36.6667Z" stroke="black" stroke-width="2.5"/>
<path d="M29.1667 36.6667C30.5475 36.6667 31.6667 35.5474 31.6667 34.1667C31.6667 32.786 30.5475 31.6667 29.1667 31.6667C27.786 31.6667 26.6667 32.786 26.6667 34.1667C26.6667 35.5474 27.786 36.6667 29.1667 36.6667Z" stroke="black" stroke-width="2.5"/>
</svg>
